<svg width="78" height="67" viewBox="0 0 78 67" fill="none" xmlns="http://www.w3.org/2000/svg">
<g clip-path="url(#clip0_4944_11608)">
<path d="M33.6944 30.7779C33.4942 30.7447 33.3024 30.7031 33.1021 30.6699C32.5516 30.5618 32.0093 30.4455 31.4671 30.3208C30.6412 30.1296 29.8236 29.9302 29.0061 29.7058C27.9717 29.4315 26.9456 29.1239 25.9278 28.7998C24.7516 28.4258 23.592 28.0185 22.4408 27.5697C21.1978 27.0876 19.9631 26.564 18.7618 25.9905C17.5605 25.417 16.2842 24.7437 15.0996 24.0289C13.915 23.3141 12.7554 22.5245 11.6709 21.6601C10.3362 20.5962 8.93466 19.4243 8.15049 17.8866C7.61659 16.8394 7.34963 15.6591 7.34963 14.4872C7.34963 12.9495 7.83348 11.5282 8.65102 10.3563C8.90129 10.0072 9.17659 9.67474 9.47691 9.36721C9.77723 9.05968 10.1109 8.78539 10.4696 8.54436C11.6459 7.72982 13.0808 7.24774 14.6157 7.24774C16.693 7.24774 18.5616 8.11215 19.888 9.5085C21.1227 10.8051 21.8818 12.5589 21.8818 14.4955V24.6273L29.1479 27.3453V14.4955C29.1479 13.3069 29.0061 12.1516 28.7308 11.0462C28.3971 9.69967 27.8799 8.42799 27.2042 7.25606C26.5952 6.20879 25.8611 5.25295 25.0269 4.39686C24.1009 3.44933 23.0414 2.62648 21.8818 1.95324C20.8307 1.34649 19.7045 0.872729 18.5032 0.540264C17.2686 0.199488 15.9588 0.0166321 14.6074 0.0166321C13.3394 0.0166321 12.1047 0.182865 10.9285 0.482083C9.65209 0.814548 8.45081 1.31325 7.34129 1.95324C7.11605 2.07791 6.90749 2.2109 6.69894 2.34389C5.84803 2.90077 5.05552 3.54076 4.33808 4.25556C3.62065 4.97036 2.9783 5.75996 2.41937 6.60775C2.27755 6.81554 2.15241 7.03164 2.01894 7.25606C1.37659 8.3615 0.876051 9.55838 0.542361 10.8301C0.233698 12.002 0.0751953 13.2321 0.0751953 14.4955C0.0751953 15.842 0.258725 17.1386 0.600757 18.377C1.6352 22.084 4.27969 24.8933 7.30792 27.1707C12.8889 31.3514 19.3958 34.3104 26.0696 36.2802C26.737 36.4797 33.6861 38.0174 33.6861 38.034V30.7946L33.6944 30.7779Z" fill="#17161A"/>
<path d="M15.3581 45.6724C6.87401 45.6724 0 38.5576 0 30.113C0 28.9993 0.116791 27.9187 0.350374 26.8798C1.84364 33.7701 7.99187 38.94 15.3581 38.94H33.7027V45.6724H15.3581Z" fill="#F36C21"/>
<path d="M7.11594 56.6936C7.8584 57.0842 8.22545 57.7242 8.22545 58.6053V61.5974C8.22545 61.7637 8.26717 61.8967 8.34225 62.0047C8.41733 62.1128 8.53412 62.1626 8.69262 62.1626H9.21818V63.8333C9.21818 63.8333 9.10973 63.8831 8.99294 63.9247C8.86781 63.9663 8.70096 64.0078 8.47572 64.0577C8.25048 64.0992 7.99187 64.1242 7.69989 64.1242C7.13262 64.1242 6.6738 64.0411 6.30674 63.8665C5.93968 63.7003 5.68941 63.4592 5.55594 63.16C5.18888 63.4509 4.77176 63.6837 4.31294 63.8582C3.85412 64.0327 3.32021 64.1159 2.71123 64.1159C0.900962 64.1159 0 63.4011 0 61.9632C0 61.2151 0.200214 60.6499 0.608984 60.2593C1.00941 59.8686 1.59337 59.5943 2.35251 59.453C3.11166 59.3117 4.10438 59.2369 5.3307 59.2369V58.8629C5.3307 58.5637 5.22225 58.331 5.01369 58.1814C4.80513 58.0234 4.53818 57.9486 4.20449 57.9486C3.90417 57.9486 3.64556 57.9985 3.42032 58.1066C3.20342 58.2146 3.09497 58.3808 3.09497 58.6136V58.6717H0.233583C0.225241 58.6219 0.216898 58.5554 0.216898 58.4723C0.216898 57.7492 0.567273 57.1673 1.25968 56.7434C1.95209 56.3196 2.95316 56.1035 4.2462 56.1035C5.42246 56.1035 6.38182 56.3029 7.11594 56.6936ZM3.4954 60.8743C3.10332 61.0572 2.9031 61.2899 2.9031 61.5974C2.9031 62.0795 3.23679 62.3206 3.89583 62.3206C4.27123 62.3206 4.60492 62.2208 4.8969 62.013C5.18053 61.8135 5.3307 61.5559 5.3307 61.2567V60.6C4.50481 60.6 3.89583 60.6915 3.50374 60.866L3.4954 60.8743Z" fill="#17161A"/>
<path d="M15.5161 57.3668L15.7664 56.278H18.1272V66.8171H15.2241V63.2598C14.6819 63.8416 13.9561 64.1325 13.0635 64.1325C12.0207 64.1325 11.2199 63.8 10.6609 63.1185C10.0937 62.4452 9.81836 61.4478 9.81836 60.1346C9.81836 58.8213 10.102 57.8073 10.6609 57.1258C11.2282 56.4442 12.0291 56.1118 13.0635 56.1118C14.0979 56.1118 14.9488 56.5356 15.5161 57.3751V57.3668ZM12.7215 59.719V60.492C12.7215 61.4894 13.1386 61.9881 13.9728 61.9881C14.3983 61.9881 14.7236 61.8385 14.9322 61.5309C15.1491 61.2234 15.2492 60.8328 15.2492 60.3507V59.8686C15.2492 59.3865 15.1407 58.9959 14.9322 58.6884C14.7153 58.3891 14.3983 58.2395 13.9728 58.2395C13.1386 58.2395 12.7215 58.7299 12.7215 59.719Z" fill="#17161A"/>
<path d="M27.103 57.0926C27.8455 57.7492 28.2209 58.7549 28.2209 60.118V60.6084H22.448C22.448 61.1569 22.5732 61.5808 22.8234 61.8551C23.0737 62.1377 23.4658 62.279 23.9997 62.279C24.4835 62.279 24.8422 62.1793 25.0758 61.9715C25.3011 61.772 25.4179 61.4977 25.4179 61.1569H28.2292C28.2292 62.0878 27.8705 62.8109 27.1614 63.3346C26.4523 63.8582 25.4179 64.1159 24.0581 64.1159C22.6316 64.1159 21.522 63.7834 20.7295 63.1185C19.9453 62.4535 19.5449 61.4478 19.5449 60.1014C19.5449 58.7549 19.9287 57.7824 20.6962 57.1092C21.4636 56.4276 22.5231 56.0952 23.8745 56.0952C25.226 56.0952 26.3605 56.4276 27.103 57.0842V57.0926ZM22.4647 59.2369H25.2927C25.2927 58.838 25.1759 58.5221 24.9507 58.2894C24.7255 58.0567 24.4001 57.9403 23.9913 57.9403C23.0737 57.9403 22.5648 58.3725 22.4564 59.2369H22.4647Z" fill="#17161A"/>
<path d="M35.2215 63.9496L34.9712 62.8608C34.4039 63.7003 33.5864 64.1242 32.5186 64.1242C31.4508 64.1242 30.6749 63.7834 30.116 63.1101C29.5487 62.4286 29.2734 61.4312 29.2734 60.1013C29.2734 58.7715 29.5571 57.7907 30.116 57.1175C30.6833 56.4442 31.4841 56.1035 32.5186 56.1035C33.4028 56.1035 34.1203 56.4027 34.6792 56.9928V53.4188H37.5823V63.9579H35.2215V63.9496ZM32.1765 59.7356V60.5086C32.1765 61.4977 32.5937 61.9881 33.4279 61.9881C33.8533 61.9881 34.1787 61.8385 34.3872 61.5393C34.6041 61.24 34.7042 60.8494 34.7042 60.359V59.8769C34.7042 59.3949 34.5958 58.9959 34.3872 58.6967C34.1703 58.3891 33.8533 58.2395 33.4279 58.2395C32.5937 58.2395 32.1765 58.7382 32.1765 59.7356Z" fill="#17161A"/>
<path d="M39.4512 63.9496V56.278H42.3543V63.9496H39.4512Z" fill="#17161A"/>
<path d="M52.431 56.2032C52.1306 56.519 51.6885 56.7601 51.0962 56.918C51.3798 57.1341 51.5967 57.3834 51.7636 57.666C51.9221 57.9486 52.0055 58.2562 52.0055 58.572C52.0055 59.3866 51.6969 60.0016 51.0795 60.4172C50.4622 60.8328 49.6947 61.0406 48.7687 61.0406H47.6592C47.0502 61.0406 46.7416 61.1819 46.7416 61.4645C46.7416 61.5974 46.8083 61.7055 46.9418 61.7886C47.0752 61.8717 47.3172 61.9133 47.6592 61.9133H50.287C51.1463 61.9133 51.7886 62.1377 52.2308 62.5782C52.6646 63.027 52.8898 63.6172 52.8898 64.3652C52.8898 64.9138 52.748 65.3959 52.456 65.7865C52.164 66.1855 51.7719 66.4847 51.2714 66.6842C50.7792 66.8836 50.237 66.9917 49.653 66.9917H45.3651C45.0147 66.9917 44.6894 66.9086 44.3974 66.7423C44.0971 66.5761 43.8635 66.3517 43.6883 66.0691C43.5131 65.7865 43.4297 65.4623 43.4297 65.1133C43.4297 64.7392 43.5465 64.3901 43.7801 64.0909C44.0136 63.7834 44.3056 63.559 44.656 63.4011C44.4224 63.2348 44.2389 63.0354 44.1054 62.8026C43.9719 62.5699 43.9052 62.3206 43.9052 62.0463C43.9052 61.6722 44.047 61.3232 44.3306 61.0239C44.6143 60.7164 44.9647 60.5169 45.3818 60.4089C45.0064 60.1678 44.6977 59.8852 44.4808 59.5694C44.2556 59.2536 44.1471 58.9211 44.1471 58.572C44.1471 57.6827 44.5058 57.0427 45.2316 56.6603C45.9574 56.278 46.9167 56.0868 48.1097 56.0868C48.6352 56.0868 49.0607 56.1118 49.3777 56.17C49.8532 55.8707 50.1619 55.5964 50.3037 55.3471C50.4455 55.0977 50.5123 54.9232 50.5123 54.8152H52.9065C52.9065 55.4053 52.7563 55.8624 52.4643 56.1783L52.431 56.2032ZM46.3745 64.1325C46.2327 64.2572 46.1659 64.4234 46.1659 64.6478C46.1659 64.8722 46.241 65.0468 46.3828 65.1881C46.5247 65.321 46.7082 65.3875 46.9251 65.3875H49.2025C49.4194 65.3875 49.5946 65.321 49.7531 65.1881C49.9033 65.0551 49.9783 64.8805 49.9783 64.6561C49.9783 64.4317 49.9033 64.2572 49.7615 64.1325C49.6196 64.0078 49.4278 63.9413 49.2109 63.9413H46.9334C46.7082 63.9413 46.5247 63.9995 46.3828 64.1242L46.3745 64.1325ZM47.2588 57.8572C47.0586 58.0234 46.9501 58.2562 46.9501 58.572C46.9501 58.8879 47.0419 59.1289 47.2337 59.2951C47.4256 59.453 47.6926 59.5362 48.0429 59.5362C48.3933 59.5362 48.6686 59.453 48.8688 59.2951C49.069 59.1372 49.1692 58.8962 49.1692 58.572C49.1692 58.2479 49.069 58.0151 48.8688 57.8489C48.6686 57.691 48.3933 57.6079 48.0429 57.6079C47.7259 57.6079 47.459 57.691 47.2588 57.8572Z" fill="#17161A"/>
<path d="M54.041 63.9496V56.278H56.9441V63.9496H54.041Z" fill="#17161A"/>
<path d="M63.9263 56.278V58.2395H62.2912V61.1569C62.2912 61.506 62.3496 61.7637 62.4664 61.9216C62.5832 62.0795 62.8001 62.1626 63.1088 62.1626H63.9263V63.8665C63.6927 63.9413 63.3924 64.0078 63.0253 64.0577C62.6583 64.1075 62.3329 64.1325 62.066 64.1325C61.2067 64.1325 60.5477 63.9746 60.0889 63.667C59.63 63.3595 59.3965 62.8276 59.3965 62.0795V58.2395H58.3203V56.278H59.5132L60.1389 53.9507H62.2996V56.278H63.9346H63.9263Z" fill="#17161A"/>
<path d="M71.9519 56.6936C72.6943 57.0842 73.0614 57.7242 73.0614 58.6053V61.5974C73.0614 61.7637 73.1031 61.8967 73.1782 62.0047C73.2533 62.1128 73.3701 62.1626 73.5286 62.1626H74.0541V63.8333C74.0541 63.8333 73.9457 63.8831 73.8289 63.9247C73.7037 63.9663 73.5369 64.0078 73.3117 64.0577C73.0864 64.0992 72.8278 64.1242 72.5358 64.1242C71.9686 64.1242 71.5097 64.0411 71.1427 63.8665C70.7756 63.7003 70.5253 63.4592 70.3919 63.16C70.0248 63.4509 69.6077 63.6837 69.1489 63.8582C68.6901 64.0327 68.1562 64.1159 67.5472 64.1159C65.7369 64.1159 64.8359 63.4011 64.8359 61.9632C64.8359 61.2151 65.0361 60.6499 65.4449 60.2593C65.8453 59.8686 66.4293 59.5943 67.1885 59.453C67.9476 59.3117 68.9403 59.2369 70.1666 59.2369V58.8629C70.1666 58.5637 70.0582 58.331 69.8496 58.1814C69.6411 58.0234 69.3741 57.9486 69.0404 57.9486C68.7401 57.9486 68.4815 57.9985 68.2563 58.1066C68.0394 58.2146 67.9309 58.3808 67.9309 58.6136V58.6717H65.0695C65.0612 58.6219 65.0528 58.5554 65.0528 58.4723C65.0528 57.7492 65.4032 57.1673 66.0956 56.7434C66.788 56.3196 67.7891 56.1035 69.0821 56.1035C70.2584 56.1035 71.2178 56.3029 71.9519 56.6936ZM68.323 60.8743C67.9309 61.0572 67.7307 61.2899 67.7307 61.5974C67.7307 62.0795 68.0644 62.3206 68.7234 62.3206C69.0988 62.3206 69.4325 62.2208 69.7245 62.013C70.0081 61.8135 70.1583 61.5559 70.1583 61.2567V60.6C69.3324 60.6 68.7234 60.6915 68.3313 60.866L68.323 60.8743Z" fill="#17161A"/>
<path d="M75.0977 63.9496V53.4105H78.0008V63.9496H75.0977Z" fill="#17161A"/>
<path d="M42.3626 53.5518H39.4512V55.5216H42.3626V53.5518Z" fill="#F36C21"/>
<path d="M56.935 53.5601H53.9902V55.5217H56.935V53.5601Z" fill="#F36C21"/>
</g>
<defs>
<clipPath id="clip0_4944_11608">
<rect width="78" height="67" fill="white"/>
</clipPath>
</defs>
</svg>
