<svg width="63" height="30" viewBox="0 0 63 30" fill="none" xmlns="http://www.w3.org/2000/svg">
<path d="M62.3708 30H0L16.62 7.08731C16.9909 6.57331 17.8367 6.57331 18.2077 7.08731L21.2545 11.2968L12.4444 23.4479C12.176 23.8235 12.2655 24.3248 12.6364 24.5888C12.7778 24.6891 12.9568 24.7385 13.1228 24.7385C13.3797 24.7385 13.6352 24.6256 13.8012 24.3996L31.2179 0.385502C31.5888 -0.128501 32.4346 -0.128501 32.8055 0.385502L45.1749 17.4352L40.8088 23.4479C40.5404 23.8235 40.6298 24.3248 41.0138 24.5888C41.3847 24.8515 41.8971 24.7639 42.167 24.401L46.8275 17.9619L46.943 17.7995L49.44 14.3667C49.8109 13.8527 50.6567 13.8527 51.0276 14.3667L62.3722 30.0014L62.3708 30Z" fill="#4526FF"/>
</svg>
