<svg width="213" height="30" viewBox="0 0 213 30" fill="none" xmlns="http://www.w3.org/2000/svg">
<path d="M62.3708 30H0L16.62 7.08731C16.9909 6.57331 17.8367 6.57331 18.2077 7.08731L21.2545 11.2968L12.4444 23.4479C12.176 23.8235 12.2655 24.3248 12.6364 24.5888C12.7778 24.6891 12.9568 24.7385 13.1228 24.7385C13.3797 24.7385 13.6352 24.6256 13.8012 24.3996L31.2179 0.385502C31.5888 -0.128501 32.4346 -0.128501 32.8055 0.385502L45.1749 17.4352L40.8088 23.4479C40.5404 23.8235 40.6298 24.3248 41.0138 24.5888C41.3847 24.8515 41.8971 24.7639 42.167 24.401L46.8275 17.9619L46.943 17.7995L49.44 14.3667C49.8109 13.8527 50.6567 13.8527 51.0276 14.3667L62.3722 30.0014L62.3708 30Z" fill="#4526FF"/>
<path d="M69.2627 23.9357L75.9525 5.32422H79.6807L86.3705 23.9357H83.1533L81.6985 19.7629H73.9607L72.4799 23.9357H69.2627ZM74.8296 17.1406H80.7791L77.4089 7.39718H78.2518L74.8296 17.1406Z" fill="#4526FF"/>
<path d="M88.3378 23.9357V5.02344H91.223V23.9357H88.3378Z" fill="#4526FF"/>
<path d="M94.5928 28.9315V10.4189H97.351V13.2163L97.019 12.5667C97.53 11.8014 98.2098 11.2012 99.0613 10.7677C99.9129 10.3356 100.883 10.1182 101.973 10.1182C103.283 10.1182 104.462 10.426 105.509 11.0431C106.555 11.6588 107.381 12.5004 107.985 13.5665C108.589 14.6326 108.892 15.8315 108.892 17.1645C108.892 18.4975 108.59 19.6964 107.985 20.7626C107.381 21.8287 106.559 22.6731 105.522 23.2987C104.482 23.9228 103.3 24.2349 101.973 24.2349C100.9 24.2349 99.9259 24.0188 99.0483 23.5853C98.1708 23.1532 97.4953 22.5277 97.019 21.7115L97.478 21.1876V28.9315H94.5928ZM101.693 21.6112C102.509 21.6112 103.233 21.4206 103.863 21.0365C104.493 20.6538 104.991 20.1243 105.357 19.4507C105.724 18.7757 105.906 18.0146 105.906 17.1645C105.906 16.3144 105.722 15.5576 105.357 14.8911C104.991 14.2245 104.493 13.7007 103.863 13.3166C103.234 12.9339 102.509 12.7418 101.693 12.7418C100.876 12.7418 100.173 12.9339 99.5347 13.3166C98.8968 13.7007 98.3945 14.2245 98.0279 14.8911C97.6613 15.5576 97.4794 16.3144 97.4794 17.1645C97.4794 18.0146 97.6627 18.7757 98.0279 19.4507C98.3945 20.1257 98.8968 20.6538 99.5347 21.0365C100.173 21.4206 100.891 21.6112 101.693 21.6112Z" fill="#4526FF"/>
<path d="M111.702 8.57107V5.32324H114.587V8.57107H111.702ZM111.702 23.9361V10.4209H114.587V23.9361H111.702Z" fill="#4526FF"/>
<path d="M117.958 23.9361V10.4209H120.716V13.0686L120.384 12.7184C120.725 11.8683 121.269 11.223 122.018 10.7824C122.767 10.3418 123.635 10.1201 124.623 10.1201C125.612 10.1201 126.547 10.3362 127.33 10.7697C128.112 11.2032 128.725 11.8019 129.168 12.5687C129.611 13.3355 129.832 14.218 129.832 15.2164V23.9347H126.973V15.9648C126.973 15.2813 126.846 14.7038 126.591 14.2279C126.335 13.7534 125.973 13.3863 125.505 13.1293C125.036 12.8709 124.505 12.7424 123.909 12.7424C123.313 12.7424 122.782 12.8723 122.313 13.1293C121.845 13.3877 121.483 13.7577 121.227 14.2406C120.972 14.7236 120.845 15.2983 120.845 15.9648V23.9347H117.959L117.958 23.9361Z" fill="#4526FF"/>
<path d="M139.407 24.235C138.029 24.235 136.806 23.9229 135.743 23.2988C134.679 22.6746 133.849 21.8246 133.253 20.7499C132.657 19.6753 132.359 18.4722 132.359 17.1406C132.359 15.809 132.661 14.5678 133.266 13.5186C133.871 12.4694 134.683 11.6405 135.705 11.0333C136.727 10.4261 137.885 10.1211 139.178 10.1211C140.216 10.1211 141.144 10.2962 141.961 10.645C142.777 10.9952 143.467 11.4739 144.029 12.0811C144.59 12.6897 145.02 13.3844 145.318 14.1668C145.615 14.9505 145.765 15.7822 145.765 16.6648C145.765 16.8808 145.757 17.1067 145.739 17.3397C145.722 17.5727 145.689 17.7888 145.637 17.9893H134.631V15.7412H144.003L142.624 16.765C142.795 15.9488 142.74 15.2202 142.459 14.5791C142.177 13.938 141.751 13.4296 141.181 13.0554C140.611 12.6812 139.943 12.4934 139.176 12.4934C138.41 12.4934 137.729 12.6812 137.134 13.0554C136.538 13.4296 136.079 13.9634 135.756 14.6539C135.432 15.3459 135.304 16.1818 135.373 17.1646C135.288 18.0811 135.419 18.8803 135.769 19.5624C136.118 20.2458 136.612 20.7782 137.25 21.1609C137.887 21.545 138.616 21.7356 139.433 21.7356C140.25 21.7356 140.978 21.552 141.565 21.1863C142.153 20.8206 142.616 20.3461 142.956 19.7629L145.306 20.8869C145.033 21.5195 144.612 22.09 144.042 22.5984C143.472 23.1067 142.79 23.5064 142 23.7973C141.207 24.0881 140.344 24.235 139.407 24.235Z" fill="#4526FF"/>
<path d="M148.855 23.9361V5.32324H151.664L158.814 15.0159H157.41L164.432 5.32324H167.241V23.9347H164.253V8.79559L165.376 9.09495L158.201 18.6887H157.895L150.873 9.09495L151.869 8.79559V23.9347H148.855V23.9361Z" fill="#4526FF"/>
<path d="M175.028 24.2349C174.091 24.2349 173.27 24.0725 172.564 23.7477C171.857 23.4229 171.309 22.9739 170.918 22.3992C170.525 21.8244 170.33 21.1466 170.33 20.3629C170.33 19.63 170.496 18.972 170.828 18.3888C171.16 17.8056 171.675 17.3142 172.372 16.9146C173.071 16.515 173.947 16.2311 175.002 16.0659L179.803 15.2907V17.5147L175.564 18.2391C174.797 18.3733 174.236 18.6105 173.878 18.9508C173.52 19.2926 173.342 19.7303 173.342 20.2627C173.342 20.795 173.543 21.1989 173.943 21.5237C174.343 21.8485 174.858 22.0108 175.487 22.0108C176.269 22.0108 176.955 21.8442 177.542 21.511C178.13 21.1777 178.585 20.7329 178.909 20.1737C179.233 19.6159 179.394 18.996 179.394 18.3126V14.8402C179.394 14.1737 179.143 13.6286 178.641 13.2036C178.139 12.7786 177.47 12.5667 176.636 12.5667C175.87 12.5667 175.201 12.763 174.631 13.1542C174.061 13.5453 173.64 14.0494 173.367 14.6651L170.967 13.4903C171.222 12.8237 171.639 12.2377 172.218 11.7294C172.797 11.221 173.474 10.8256 174.249 10.5432C175.024 10.2608 175.845 10.1182 176.712 10.1182C177.802 10.1182 178.768 10.3187 179.611 10.7183C180.454 11.1179 181.109 11.6715 181.577 12.3789C182.044 13.0864 182.279 13.9068 182.279 14.8402V23.9341H179.521V21.4855L180.109 21.5604C179.785 22.1097 179.373 22.5842 178.87 22.9838C178.368 23.3834 177.798 23.6912 177.16 23.9087C176.522 24.1248 175.81 24.2335 175.028 24.2335V24.2349Z" fill="#4526FF"/>
<path d="M192.214 24.2354C190.835 24.2354 189.613 23.9234 188.549 23.2992C187.485 22.6751 186.642 21.8292 186.02 20.7631C185.398 19.697 185.088 18.4896 185.088 17.1411C185.088 15.7925 185.394 14.6092 186.007 13.543C186.621 12.4769 187.462 11.6409 188.536 11.0323C189.608 10.4251 190.834 10.1201 192.214 10.1201C193.149 10.1201 194.026 10.2825 194.843 10.6073C195.66 10.9321 196.37 11.3783 196.975 11.9445C197.578 12.5108 198.026 13.1688 198.316 13.9187L195.787 15.0681C195.497 14.3691 195.034 13.8071 194.396 13.3821C193.758 12.957 193.029 12.7452 192.212 12.7452C191.395 12.7452 190.727 12.933 190.105 13.3072C189.483 13.6814 188.994 14.2067 188.637 14.8817C188.279 15.5567 188.102 16.3178 188.102 17.1679C188.102 18.018 188.281 18.7791 188.637 19.4541C188.995 20.1291 189.484 20.6572 190.105 21.0399C190.726 21.424 191.428 21.6146 192.212 21.6146C193.046 21.6146 193.774 21.4028 194.396 20.9777C195.017 20.5527 195.481 19.9822 195.787 19.2663L198.316 20.4411C198.043 21.1571 197.604 21.8024 197.001 22.3771C196.396 22.9518 195.686 23.4065 194.869 23.7384C194.052 24.0716 193.166 24.2383 192.214 24.2383V24.2354Z" fill="#4526FF"/>
<path d="M201.125 23.9357V5.02344H204.01V13.0682L203.551 12.718C203.892 11.8679 204.436 11.2225 205.185 10.782C205.934 10.3414 206.802 10.1197 207.79 10.1197C208.779 10.1197 209.714 10.3357 210.497 10.7693C211.279 11.2028 211.892 11.8015 212.335 12.5683C212.778 13.335 212.999 14.2091 212.999 15.1919V23.9357H210.14V15.9658C210.14 15.2823 210.007 14.7048 209.745 14.2289C209.48 13.7544 209.12 13.3873 208.659 13.1303C208.2 12.8719 207.672 12.7434 207.076 12.7434C206.48 12.7434 205.973 12.8733 205.506 13.1303C205.036 13.3887 204.671 13.7587 204.407 14.2416C204.143 14.7245 204.012 15.2993 204.012 15.9658V23.9357H201.126H201.125Z" fill="#4526FF"/>
</svg>
