<svg width="123" height="20" viewBox="0 0 123 20" fill="none" xmlns="http://www.w3.org/2000/svg">
<path d="M7.18622 19.288C6.05022 19.288 4.99422 19.08 4.01822 18.664C3.05822 18.248 2.22622 17.672 1.52222 16.936C0.834219 16.184 0.330219 15.312 0.0102188 14.32L2.72222 13.144C3.15422 14.168 3.77822 14.976 4.59422 15.568C5.41022 16.144 6.33022 16.432 7.35422 16.432C7.93022 16.432 8.42622 16.344 8.84222 16.168C9.27422 15.976 9.60222 15.72 9.82622 15.4C10.0662 15.08 10.1862 14.696 10.1862 14.248C10.1862 13.72 10.0262 13.288 9.70622 12.952C9.40222 12.6 8.93822 12.328 8.31422 12.136L4.88222 11.032C3.49022 10.6 2.44222 9.952 1.73822 9.088C1.03422 8.224 0.682219 7.208 0.682219 6.04C0.682219 5.016 0.930219 4.112 1.42622 3.328C1.93822 2.544 2.64222 1.936 3.53822 1.504C4.45022 1.056 5.49022 0.831999 6.65822 0.831999C7.73022 0.831999 8.71422 1.024 9.61022 1.408C10.5062 1.776 11.2742 2.296 11.9142 2.968C12.5702 3.624 13.0582 4.4 13.3782 5.296L10.6902 6.496C10.3382 5.6 9.81022 4.912 9.10622 4.432C8.40222 3.936 7.58622 3.688 6.65822 3.688C6.11422 3.688 5.63422 3.784 5.21822 3.976C4.80222 4.152 4.47422 4.408 4.23422 4.744C4.01022 5.064 3.89822 5.448 3.89822 5.896C3.89822 6.392 4.05822 6.832 4.37822 7.216C4.69822 7.584 5.18622 7.872 5.84222 8.08L9.13022 9.112C10.5542 9.576 11.6182 10.216 12.3222 11.032C13.0422 11.848 13.4022 12.856 13.4022 14.056C13.4022 15.08 13.1382 15.984 12.6102 16.768C12.0822 17.552 11.3542 18.168 10.4262 18.616C9.49822 19.064 8.41822 19.288 7.18622 19.288ZM16.0773 19V5.944H19.0293V8.968L18.6933 8.464C18.9333 7.52 19.4133 6.816 20.1333 6.352C20.8533 5.888 21.7013 5.656 22.6773 5.656C23.7493 5.656 24.6933 5.936 25.5093 6.496C26.3253 7.056 26.8533 7.792 27.0933 8.704L26.2053 8.776C26.6053 7.736 27.2053 6.96 28.0053 6.448C28.8053 5.92 29.7253 5.656 30.7653 5.656C31.6933 5.656 32.5173 5.864 33.2373 6.28C33.9733 6.696 34.5493 7.28 34.9653 8.032C35.3813 8.768 35.5893 9.624 35.5893 10.6V19H32.4453V11.344C32.4453 10.768 32.3413 10.272 32.1333 9.856C31.9253 9.44 31.6373 9.12 31.2693 8.896C30.9013 8.656 30.4533 8.536 29.9253 8.536C29.4293 8.536 28.9893 8.656 28.6053 8.896C28.2213 9.12 27.9253 9.44 27.7173 9.856C27.5093 10.272 27.4053 10.768 27.4053 11.344V19H24.2613V11.344C24.2613 10.768 24.1573 10.272 23.9493 9.856C23.7413 9.44 23.4453 9.12 23.0613 8.896C22.6933 8.656 22.2533 8.536 21.7413 8.536C21.2453 8.536 20.8053 8.656 20.4213 8.896C20.0373 9.12 19.7413 9.44 19.5333 9.856C19.3253 10.272 19.2213 10.768 19.2213 11.344V19H16.0773ZM42.2092 19.288C41.2972 19.288 40.5052 19.136 39.8332 18.832C39.1612 18.528 38.6412 18.096 38.2732 17.536C37.9052 16.96 37.7212 16.296 37.7212 15.544C37.7212 14.824 37.8812 14.184 38.2012 13.624C38.5212 13.048 39.0172 12.568 39.6892 12.184C40.3612 11.8 41.2092 11.528 42.2332 11.368L46.5052 10.672V13.072L42.8332 13.696C42.2092 13.808 41.7452 14.008 41.4412 14.296C41.1372 14.584 40.9852 14.96 40.9852 15.424C40.9852 15.872 41.1532 16.232 41.4892 16.504C41.8412 16.76 42.2732 16.888 42.7852 16.888C43.4412 16.888 44.0172 16.752 44.5132 16.48C45.0252 16.192 45.4172 15.8 45.6892 15.304C45.9772 14.808 46.1212 14.264 46.1212 13.672V10.312C46.1212 9.752 45.8972 9.288 45.4492 8.92C45.0172 8.536 44.4412 8.344 43.7212 8.344C43.0492 8.344 42.4492 8.528 41.9212 8.896C41.4092 9.248 41.0332 9.72 40.7932 10.312L38.2252 9.064C38.4812 8.376 38.8812 7.784 39.4252 7.288C39.9852 6.776 40.6412 6.376 41.3932 6.088C42.1452 5.8 42.9612 5.656 43.8412 5.656C44.9132 5.656 45.8572 5.856 46.6732 6.256C47.4892 6.64 48.1212 7.184 48.5692 7.888C49.0332 8.576 49.2652 9.384 49.2652 10.312V19H46.2892V16.768L46.9612 16.72C46.6252 17.28 46.2252 17.752 45.7612 18.136C45.2972 18.504 44.7692 18.792 44.1772 19C43.5852 19.192 42.9292 19.288 42.2092 19.288ZM52.171 19V5.944H55.123V8.848L54.883 8.416C55.187 7.44 55.659 6.76 56.299 6.376C56.955 5.992 57.739 5.8 58.651 5.8H59.419V8.584H58.291C57.395 8.584 56.675 8.864 56.131 9.424C55.587 9.968 55.315 10.736 55.315 11.728V19H52.171ZM67.4512 19.144C65.9792 19.144 64.8352 18.744 64.0192 17.944C63.2192 17.128 62.8192 15.984 62.8192 14.512V8.752H60.5632V5.944H60.8032C61.4432 5.944 61.9392 5.776 62.2912 5.44C62.6432 5.104 62.8192 4.616 62.8192 3.976V2.968H65.9632V5.944H68.9632V8.752H65.9632V14.344C65.9632 14.776 66.0352 15.144 66.1792 15.448C66.3392 15.752 66.5792 15.984 66.8992 16.144C67.2352 16.304 67.6592 16.384 68.1712 16.384C68.2832 16.384 68.4112 16.376 68.5552 16.36C68.7152 16.344 68.8672 16.328 69.0112 16.312V19C68.7872 19.032 68.5312 19.064 68.2432 19.096C67.9552 19.128 67.6912 19.144 67.4512 19.144ZM75.9428 19V1.12H82.6148C83.8308 1.12 84.9028 1.344 85.8308 1.792C86.7748 2.224 87.5108 2.864 88.0388 3.712C88.5668 4.544 88.8308 5.56 88.8308 6.76C88.8308 7.944 88.5588 8.96 88.0148 9.808C87.4868 10.64 86.7588 11.28 85.8308 11.728C84.9028 12.176 83.8308 12.4 82.6148 12.4H79.2068V19H75.9428ZM79.2068 9.52H82.6628C83.2548 9.52 83.7668 9.408 84.1988 9.184C84.6308 8.944 84.9668 8.616 85.2068 8.2C85.4468 7.784 85.5668 7.304 85.5668 6.76C85.5668 6.2 85.4468 5.72 85.2068 5.32C84.9668 4.904 84.6308 4.584 84.1988 4.36C83.7668 4.12 83.2548 4 82.6628 4H79.2068V9.52ZM91.5053 19V1.12H98.1773C99.3933 1.12 100.465 1.344 101.393 1.792C102.337 2.224 103.073 2.864 103.601 3.712C104.129 4.544 104.393 5.56 104.393 6.76C104.393 7.944 104.121 8.96 103.577 9.808C103.049 10.64 102.321 11.28 101.393 11.728C100.465 12.176 99.3933 12.4 98.1773 12.4H94.7693V19H91.5053ZM94.7693 9.52H98.2253C98.8173 9.52 99.3293 9.408 99.7613 9.184C100.193 8.944 100.529 8.616 100.769 8.2C101.009 7.784 101.129 7.304 101.129 6.76C101.129 6.2 101.009 5.72 100.769 5.32C100.529 4.904 100.193 4.584 99.7613 4.36C99.3293 4.12 98.8173 4 98.2253 4H94.7693V9.52ZM115.468 19.288C114.188 19.288 113.004 19.056 111.916 18.592C110.844 18.128 109.9 17.48 109.084 16.648C108.284 15.816 107.66 14.84 107.212 13.72C106.764 12.6 106.54 11.376 106.54 10.048C106.54 8.72 106.756 7.496 107.188 6.376C107.636 5.24 108.26 4.264 109.06 3.448C109.876 2.616 110.828 1.976 111.916 1.528C113.004 1.064 114.188 0.831999 115.468 0.831999C116.748 0.831999 117.892 1.048 118.9 1.48C119.924 1.912 120.788 2.488 121.492 3.208C122.196 3.912 122.7 4.688 123.004 5.536L120.076 6.904C119.74 6.008 119.172 5.272 118.372 4.696C117.572 4.104 116.604 3.808 115.468 3.808C114.348 3.808 113.356 4.072 112.492 4.6C111.644 5.128 110.98 5.856 110.5 6.784C110.036 7.712 109.804 8.8 109.804 10.048C109.804 11.296 110.036 12.392 110.5 13.336C110.98 14.264 111.644 14.992 112.492 15.52C113.356 16.048 114.348 16.312 115.468 16.312C116.604 16.312 117.572 16.024 118.372 15.448C119.172 14.856 119.74 14.112 120.076 13.216L123.004 14.584C122.7 15.432 122.196 16.216 121.492 16.936C120.788 17.64 119.924 18.208 118.9 18.64C117.892 19.072 116.748 19.288 115.468 19.288Z" fill="#9A9A9A"/>
</svg>
